<svg width="2876" height="1000" viewBox="0 0 2876 1000" fill="none" xmlns="http://www.w3.org/2000/svg">
<path d="M369.186 520.944C350.581 544.718 327.066 563.065 298.642 575.985C270.217 588.905 240.759 595.365 210.267 595.365C181.326 595.365 153.935 590.714 128.094 581.411C102.771 572.109 80.5478 558.93 61.4258 541.875C42.8206 524.304 28.0915 503.373 17.2385 479.083C6.38549 454.793 0.958984 427.66 0.958984 397.685C0.958984 367.71 6.38549 340.578 17.2385 316.288C28.0915 291.998 42.8206 271.325 61.4258 254.271C80.5478 236.699 102.771 223.262 128.094 213.959C153.935 204.657 181.326 200.005 210.267 200.005C237.141 200.005 261.431 204.657 283.137 213.959C305.36 223.262 323.965 236.699 338.953 254.271C354.457 271.325 366.344 291.998 374.613 316.288C382.882 340.578 387.016 367.71 387.016 397.685V434.12H117.241C121.893 456.343 131.97 474.173 147.475 487.61C162.979 500.53 182.101 506.991 204.841 506.991C223.963 506.991 239.984 502.856 252.904 494.587C266.341 485.801 277.969 474.69 287.789 461.253L369.186 520.944ZM270.734 355.048C271.251 335.41 264.791 318.613 251.354 304.66C237.916 290.706 220.603 283.729 199.414 283.729C186.494 283.729 175.124 285.796 165.305 289.93C155.485 294.065 146.958 299.491 139.723 306.21C133.004 312.412 127.577 319.905 123.443 328.691C119.825 336.96 117.758 345.746 117.241 355.048H270.734Z" fill="#101828"/>
<path d="M459.281 0H575.563V586.063H459.281V0Z" fill="#101828"/>
<path d="M1015.7 520.944C997.098 544.718 973.584 563.065 945.159 575.985C916.734 588.905 887.276 595.365 856.785 595.365C827.843 595.365 800.452 590.714 774.612 581.411C749.288 572.109 727.065 558.93 707.943 541.875C689.338 524.304 674.609 503.373 663.756 479.083C652.903 454.793 647.476 427.66 647.476 397.685C647.476 367.71 652.903 340.578 663.756 316.288C674.609 291.998 689.338 271.325 707.943 254.271C727.065 236.699 749.288 223.262 774.612 213.959C800.452 204.657 827.843 200.005 856.785 200.005C883.659 200.005 907.949 204.657 929.655 213.959C951.878 223.262 970.483 236.699 985.47 254.271C1000.97 271.325 1012.86 291.998 1021.13 316.288C1029.4 340.578 1033.53 367.71 1033.53 397.685V434.12H763.759C768.41 456.343 778.488 474.173 793.992 487.61C809.496 500.53 828.618 506.991 851.358 506.991C870.48 506.991 886.501 502.856 899.421 494.587C912.858 485.801 924.487 474.69 934.306 461.253L1015.7 520.944ZM917.251 355.048C917.768 335.41 911.308 318.613 897.871 304.66C884.434 290.706 867.121 283.729 845.931 283.729C833.011 283.729 821.641 285.796 811.822 289.93C802.003 294.065 793.475 299.491 786.24 306.21C779.521 312.412 774.095 319.905 769.96 328.691C766.343 336.96 764.276 345.746 763.759 355.048H917.251Z" fill="#101828"/>
<path d="M1064.71 209.308H1190.3L1285.65 465.129H1287.2L1375.57 209.308H1492.63L1343.79 586.063H1220.53L1064.71 209.308Z" fill="#101828"/>
<path d="M1771.45 538.774H1769.9C1756.98 558.93 1739.66 573.401 1717.96 582.186C1696.77 590.972 1674.29 595.365 1650.51 595.365C1632.94 595.365 1615.89 592.781 1599.35 587.613C1583.33 582.962 1569.12 575.726 1556.71 565.907C1544.31 556.088 1534.49 543.943 1527.25 529.472C1520.02 515.001 1516.4 498.205 1516.4 479.083C1516.4 457.377 1520.28 439.03 1528.03 424.043C1536.3 409.055 1547.15 396.652 1560.59 386.832C1574.54 377.013 1590.31 369.519 1607.88 364.351C1625.45 358.666 1643.54 354.532 1662.14 351.948C1681.26 349.364 1700.13 347.813 1718.73 347.296C1737.85 346.78 1755.43 346.521 1771.45 346.521C1771.45 325.849 1763.95 309.569 1748.97 297.683C1734.5 285.279 1717.18 279.077 1697.03 279.077C1677.91 279.077 1660.33 283.212 1644.31 291.481C1628.81 299.233 1614.85 310.086 1602.45 324.04L1540.43 260.472C1562.14 240.317 1587.46 225.329 1616.4 215.51C1645.35 205.174 1675.32 200.005 1706.33 200.005C1740.44 200.005 1768.35 204.398 1790.05 213.184C1812.28 221.453 1829.85 233.857 1842.77 250.394C1856.2 266.932 1865.51 287.346 1870.68 311.636C1875.84 335.41 1878.43 363.059 1878.43 394.584V586.063H1771.45V538.774ZM1742.76 420.942C1733.98 420.942 1722.87 421.459 1709.43 422.492C1696.51 423.009 1683.85 425.076 1671.44 428.694C1659.56 432.312 1649.22 437.738 1640.44 444.973C1632.17 452.209 1628.03 462.287 1628.03 475.207C1628.03 489.161 1633.98 499.497 1645.86 506.215C1657.75 512.934 1670.15 516.293 1683.07 516.293C1694.44 516.293 1705.3 514.743 1715.63 511.642C1726.49 508.541 1736.05 504.148 1744.32 498.463C1752.58 492.778 1759.04 485.543 1763.7 476.757C1768.86 467.971 1771.45 457.635 1771.45 445.749V420.942H1742.76Z" fill="#101828"/>
<path d="M1951.38 209.308H2067.66V269.775H2069.22C2081.62 246.518 2096.35 229.205 2113.4 217.835C2130.46 205.949 2151.9 200.005 2177.75 200.005C2184.46 200.005 2191.18 200.264 2197.9 200.781C2204.62 201.298 2210.82 202.331 2216.51 203.882V310.086C2208.24 307.502 2199.97 305.693 2191.7 304.66C2183.95 303.109 2175.68 302.334 2166.89 302.334C2144.67 302.334 2127.1 305.435 2114.18 311.636C2101.26 317.838 2091.18 326.624 2083.94 337.994C2077.23 348.847 2072.83 362.025 2070.77 377.53C2068.7 393.034 2067.66 410.089 2067.66 428.694V586.063H1951.38V209.308Z" fill="#101828"/>
<path d="M2280.7 209.308H2392.33V260.472H2393.88C2397.5 253.237 2402.66 246.002 2409.38 238.766C2416.1 231.531 2424.11 225.071 2433.41 219.386C2442.72 213.701 2453.31 209.05 2465.2 205.432C2477.09 201.814 2490.01 200.005 2503.96 200.005C2530.32 200.005 2553.57 205.432 2573.73 216.285C2594.4 227.138 2609.91 244.193 2620.24 267.449C2633.68 243.159 2649.96 225.846 2669.08 215.51C2688.2 205.174 2711.72 200.005 2739.62 200.005C2764.95 200.005 2786.14 204.398 2803.19 213.184C2820.76 221.453 2834.46 233.081 2844.28 248.069C2854.62 262.539 2861.85 279.853 2865.98 300.008C2870.64 319.647 2872.96 340.836 2872.96 363.576V586.063H2756.68V366.677C2756.68 349.105 2752.8 334.118 2745.05 321.714C2737.82 308.794 2724.64 302.334 2705.52 302.334C2692.08 302.334 2680.71 304.659 2671.41 309.311C2662.62 313.445 2655.38 319.389 2649.7 327.141C2644.53 334.893 2640.66 343.937 2638.07 354.273C2636 364.609 2634.97 375.462 2634.97 386.832V586.063H2518.69V386.832C2518.69 380.114 2518.43 371.845 2517.91 362.025C2517.4 352.206 2515.59 342.903 2512.49 334.118C2509.39 325.332 2504.22 317.838 2496.98 311.636C2490.26 305.435 2480.19 302.334 2466.75 302.334C2451.76 302.334 2439.62 305.176 2430.31 310.861C2421.01 316.029 2413.78 323.265 2408.61 332.567C2403.96 341.353 2400.86 351.431 2399.31 362.801C2397.75 374.17 2396.98 386.057 2396.98 398.461V586.063H2280.7V209.308Z" fill="#101828"/>
<path fill-rule="evenodd" clip-rule="evenodd" d="M1.08535 682.829C1.45711 683.805 6.25911 686.546 11.7504 688.916C17.2495 691.286 28.1314 696.149 35.9385 699.719C71.7754 716.099 101.509 729.171 104.715 729.969C106.652 730.449 112.004 732.548 116.62 734.639C129.229 740.354 179.162 761.109 190.199 765.221C195.527 767.204 209.461 772.462 221.179 776.907C268.161 794.735 286.75 801.627 294.758 804.214C299.374 805.701 313.897 810.681 327.032 815.281C361.359 827.308 412.438 844.005 414.893 844.005C416.04 844.005 420.416 845.19 424.614 846.638C446.741 854.289 526.222 878.002 541.31 881.456C545.213 882.347 559.162 885.956 572.29 889.472C605.92 898.471 681.032 917.112 691.055 918.947C695.671 919.791 715.127 923.857 734.296 927.977C805.52 943.295 859.21 953.224 915.664 961.518C925.957 963.036 949.479 966.497 967.944 969.208C1061.03 982.915 1168.9 993.634 1240.31 996.282C1258.06 996.941 1290.59 998.156 1312.6 998.985C1338.02 999.938 1383.24 1000.24 1436.53 999.806C1596.5 998.497 1692.03 992.852 1824.43 976.883C1857.92 972.84 1864.27 971.98 1919.3 963.996C1938.47 961.208 1958.8 958.304 1964.48 957.529C1993.18 953.626 2068.94 939.144 2125.84 926.691C2141.46 923.276 2158.3 919.745 2163.28 918.846C2173.11 917.073 2242.38 899.935 2282.68 889.301C2296.52 885.654 2314.83 880.845 2323.35 878.622C2340.67 874.099 2388.75 859.788 2416.29 850.959C2426.22 847.768 2436.97 844.585 2440.17 843.888C2446.88 842.409 2471.76 834.363 2520.2 817.999C2539.01 811.641 2559.05 804.927 2564.73 803.076C2570.42 801.233 2590.75 793.914 2609.92 786.82C2629.09 779.726 2648.26 772.749 2652.51 771.316C2667.34 766.321 2685.01 759.684 2720.28 745.852C2739.81 738.193 2759.56 730.619 2764.17 729.032C2768.79 727.436 2786.51 720.366 2803.55 713.318C2840.72 697.938 2849.13 694.561 2863.89 689.071C2870.48 686.624 2875.19 684.145 2875.19 683.123C2875.19 680.707 2875.89 680.552 2851.34 688.405C2790.71 707.82 2655.74 746.263 2579.58 765.825C2545.45 774.584 2403.2 808.985 2393.05 810.928C2387.37 812.013 2364.71 816.961 2342.71 821.925C2299.86 831.59 2246.93 842.951 2234.28 845.197C2230.02 845.956 2205.04 850.642 2178.77 855.606C2090.24 872.357 2039.9 881.023 1987.72 888.512C1974.94 890.339 1946.64 894.428 1924.83 897.588C1846 909.019 1748.72 920.542 1712.76 922.718C1702.11 923.361 1674.81 925.359 1652.1 927.164C1482.62 940.592 1310.21 940.848 1146.73 927.907C1129.33 926.529 1106.39 924.771 1095.74 924.004C1031.64 919.35 936.824 907.276 847.243 892.361C827.726 889.116 807.054 885.909 801.322 885.243C787.211 883.609 713.771 869.313 656.209 857C630.286 851.455 606.47 846.529 603.271 846.049C596.029 844.973 532.813 829.856 486.172 818.046C466.856 813.159 449.979 809.155 448.67 809.155C446.099 809.155 428.757 804.547 354.14 784.04C327.513 776.722 303.704 770.363 301.226 769.906C297.105 769.148 213.612 744.799 189.765 737.403C184.204 735.676 176.072 733.485 171.696 732.54C167.32 731.595 143.697 724.563 119.199 716.912C94.7088 709.26 68.5689 701.253 61.1103 699.107C53.6595 696.962 38.2621 692.308 26.9077 688.776C1.28672 680.8 0.210144 680.552 1.08535 682.829Z" fill="#101828"/>
</svg>
