<svg width="2875" height="1000" viewBox="0 0 2875 1000" fill="none" xmlns="http://www.w3.org/2000/svg">
<path d="M368.294 520.944C349.689 544.718 326.174 563.065 297.75 575.985C269.325 588.905 239.867 595.365 209.375 595.365C180.434 595.365 153.043 590.714 127.202 581.411C101.879 572.109 79.6557 558.93 60.5337 541.875C41.9285 524.304 27.1994 503.373 16.3464 479.083C5.4934 454.793 0.0668945 427.66 0.0668945 397.685C0.0668945 367.71 5.4934 340.578 16.3464 316.288C27.1994 291.998 41.9285 271.325 60.5337 254.271C79.6557 236.699 101.879 223.262 127.202 213.959C153.043 204.657 180.434 200.005 209.375 200.005C236.249 200.005 260.539 204.657 282.245 213.959C304.468 223.262 323.073 236.699 338.061 254.271C353.565 271.325 365.452 291.998 373.721 316.288C381.99 340.578 386.124 367.71 386.124 397.685V434.12H116.349C121 456.343 131.078 474.173 146.583 487.61C162.087 500.53 181.209 506.991 203.949 506.991C223.07 506.991 239.092 502.856 252.012 494.587C265.449 485.801 277.077 474.69 286.897 461.253L368.294 520.944ZM269.842 355.048C270.359 335.41 263.898 318.613 250.461 304.66C237.024 290.706 219.711 283.729 198.522 283.729C185.602 283.729 174.232 285.796 164.413 289.93C154.593 294.065 146.066 299.491 138.83 306.21C132.112 312.412 126.685 319.905 122.551 328.691C118.933 336.96 116.866 345.746 116.349 355.048H269.842Z" fill="#283EBF"/>
<path d="M458.389 0H574.671V586.063H458.389V0Z" fill="#283EBF"/>
<path d="M1014.81 520.944C996.206 544.718 972.692 563.065 944.267 575.985C915.842 588.905 886.384 595.365 855.892 595.365C826.951 595.365 799.56 590.714 773.72 581.411C748.396 572.109 726.173 558.93 707.051 541.875C688.446 524.304 673.717 503.373 662.864 479.083C652.011 454.793 646.584 427.66 646.584 397.685C646.584 367.71 652.011 340.578 662.864 316.288C673.717 291.998 688.446 271.325 707.051 254.271C726.173 236.699 748.396 223.262 773.72 213.959C799.56 204.657 826.951 200.005 855.892 200.005C882.767 200.005 907.057 204.657 928.763 213.959C950.985 223.262 969.591 236.699 984.578 254.271C1000.08 271.325 1011.97 291.998 1020.24 316.288C1028.51 340.578 1032.64 367.71 1032.64 397.685V434.12H762.867C767.518 456.343 777.596 474.173 793.1 487.61C808.604 500.53 827.726 506.991 850.466 506.991C869.588 506.991 885.609 502.856 898.529 494.587C911.966 485.801 923.595 474.69 933.414 461.253L1014.81 520.944ZM916.359 355.048C916.876 335.41 910.416 318.613 896.979 304.66C883.542 290.706 866.229 283.729 845.039 283.729C832.119 283.729 820.749 285.796 810.93 289.93C801.111 294.065 792.583 299.491 785.348 306.21C778.629 312.412 773.203 319.905 769.068 328.691C765.451 336.96 763.383 345.746 762.867 355.048H916.359Z" fill="#283EBF"/>
<path d="M1063.82 209.308H1189.4L1284.76 465.129H1286.31L1374.68 209.308H1491.74L1342.9 586.063H1219.64L1063.82 209.308Z" fill="#283EBF"/>
<path d="M1770.56 538.774H1769.01C1756.08 558.93 1738.77 573.401 1717.07 582.186C1695.88 590.972 1673.4 595.365 1649.62 595.365C1632.05 595.365 1615 592.781 1598.46 587.613C1582.44 582.962 1568.22 575.726 1555.82 565.907C1543.42 556.088 1533.6 543.943 1526.36 529.472C1519.13 515.001 1515.51 498.205 1515.51 479.083C1515.51 457.377 1519.39 439.03 1527.14 424.043C1535.41 409.055 1546.26 396.652 1559.7 386.832C1573.65 377.013 1589.41 369.519 1606.99 364.351C1624.56 358.666 1642.65 354.532 1661.25 351.948C1680.37 349.364 1699.24 347.813 1717.84 347.296C1736.96 346.78 1754.53 346.521 1770.56 346.521C1770.56 325.849 1763.06 309.569 1748.07 297.683C1733.6 285.279 1716.29 279.077 1696.13 279.077C1677.01 279.077 1659.44 283.212 1643.42 291.481C1627.92 299.233 1613.96 310.086 1601.56 324.04L1539.54 260.472C1561.25 240.317 1586.57 225.329 1615.51 215.51C1644.45 205.174 1674.43 200.005 1705.44 200.005C1739.55 200.005 1767.45 204.398 1789.16 213.184C1811.38 221.453 1828.96 233.857 1841.88 250.394C1855.31 266.932 1864.61 287.346 1869.78 311.636C1874.95 335.41 1877.54 363.059 1877.54 394.584V586.063H1770.56V538.774ZM1741.87 420.942C1733.09 420.942 1721.98 421.459 1708.54 422.492C1695.62 423.009 1682.96 425.076 1670.55 428.694C1658.67 432.312 1648.33 437.738 1639.54 444.973C1631.28 452.209 1627.14 462.287 1627.14 475.207C1627.14 489.161 1633.08 499.497 1644.97 506.215C1656.86 512.934 1669.26 516.293 1682.18 516.293C1693.55 516.293 1704.4 514.743 1714.74 511.642C1725.59 508.541 1735.15 504.148 1743.42 498.463C1751.69 492.778 1758.15 485.543 1762.8 476.757C1767.97 467.971 1770.56 457.635 1770.56 445.749V420.942H1741.87Z" fill="#283EBF"/>
<path d="M1950.49 209.308H2066.77V269.775H2068.32C2080.73 246.518 2095.46 229.205 2112.51 217.835C2129.56 205.949 2151.01 200.005 2176.85 200.005C2183.57 200.005 2190.29 200.264 2197.01 200.781C2203.73 201.298 2209.93 202.331 2215.61 203.882V310.086C2207.34 307.502 2199.08 305.693 2190.81 304.66C2183.05 303.109 2174.79 302.334 2166 302.334C2143.78 302.334 2126.21 305.435 2113.29 311.636C2100.37 317.838 2090.29 326.624 2083.05 337.994C2076.33 348.847 2071.94 362.025 2069.87 377.53C2067.81 393.034 2066.77 410.089 2066.77 428.694V586.063H1950.49V209.308Z" fill="#283EBF"/>
<path d="M2279.81 209.308H2391.44V260.472H2392.99C2396.6 253.237 2401.77 246.002 2408.49 238.766C2415.21 231.531 2423.22 225.071 2432.52 219.386C2441.83 213.701 2452.42 209.05 2464.31 205.432C2476.19 201.814 2489.11 200.005 2503.07 200.005C2529.42 200.005 2552.68 205.432 2572.84 216.285C2593.51 227.138 2609.01 244.193 2619.35 267.449C2632.79 243.159 2649.07 225.846 2668.19 215.51C2687.31 205.174 2710.82 200.005 2738.73 200.005C2764.06 200.005 2785.25 204.398 2802.3 213.184C2819.87 221.453 2833.57 233.081 2843.39 248.069C2853.72 262.539 2860.96 279.853 2865.09 300.008C2869.74 319.647 2872.07 340.836 2872.07 363.576V586.063H2755.79V366.677C2755.79 349.105 2751.91 334.118 2744.16 321.714C2736.92 308.794 2723.75 302.334 2704.62 302.334C2691.19 302.334 2679.82 304.659 2670.51 309.311C2661.73 313.445 2654.49 319.389 2648.81 327.141C2643.64 334.893 2639.76 343.937 2637.18 354.273C2635.11 364.609 2634.08 375.462 2634.08 386.832V586.063H2517.8V386.832C2517.8 380.114 2517.54 371.845 2517.02 362.025C2516.5 352.206 2514.7 342.903 2511.59 334.118C2508.49 325.332 2503.33 317.838 2496.09 311.636C2489.37 305.435 2479.29 302.334 2465.86 302.334C2450.87 302.334 2438.72 305.176 2429.42 310.861C2420.12 316.029 2412.88 323.265 2407.72 332.567C2403.06 341.353 2399.96 351.431 2398.41 362.801C2396.86 374.17 2396.09 386.057 2396.09 398.461V586.063H2279.81V209.308Z" fill="#283EBF"/>
<path fill-rule="evenodd" clip-rule="evenodd" d="M0.192768 682.829C0.564536 683.805 5.36653 686.546 10.8578 688.916C16.3569 691.286 27.2388 696.149 35.046 699.719C70.8828 716.099 100.616 729.171 103.823 729.969C105.759 730.449 111.111 732.548 115.727 734.639C128.336 740.354 178.269 761.109 189.306 765.221C194.635 767.204 208.568 772.462 220.287 776.907C267.269 794.735 285.857 801.627 293.866 804.214C298.482 805.701 313.004 810.681 326.14 815.281C360.466 827.308 411.546 844.005 414.001 844.005C415.147 844.005 419.523 845.19 423.721 846.638C445.849 854.289 525.33 878.002 540.417 881.456C544.321 882.347 558.27 885.956 571.398 889.472C605.027 898.471 680.14 917.112 690.162 918.947C694.778 919.791 714.234 923.857 733.403 927.977C804.628 943.295 858.317 953.224 914.772 961.518C925.065 963.036 948.587 966.497 967.051 969.208C1060.14 982.915 1168.01 993.634 1239.42 996.282C1257.17 996.941 1289.7 998.156 1311.71 998.985C1337.12 999.938 1382.35 1000.24 1435.63 999.806C1595.61 998.497 1691.14 992.852 1823.53 976.883C1857.03 972.84 1863.37 971.98 1918.41 963.996C1937.58 961.208 1957.91 958.304 1963.59 957.529C1992.29 953.626 2068.05 939.144 2124.95 926.691C2140.57 923.276 2157.41 919.745 2162.38 918.846C2172.21 917.073 2241.49 899.935 2281.79 889.301C2295.63 885.654 2313.93 880.845 2322.45 878.622C2339.78 874.099 2387.86 859.788 2415.4 850.959C2425.33 847.768 2436.07 844.585 2439.27 843.888C2445.99 842.409 2470.87 834.363 2519.3 817.999C2538.12 811.641 2558.16 804.927 2563.84 803.076C2569.52 801.233 2589.85 793.914 2609.02 786.82C2628.19 779.726 2647.36 772.749 2651.62 771.316C2666.45 766.321 2684.11 759.684 2719.39 745.852C2738.92 738.193 2758.67 730.619 2763.28 729.032C2767.89 727.436 2785.61 720.366 2802.65 713.318C2839.83 697.938 2848.23 694.561 2863 689.071C2869.59 686.624 2874.3 684.145 2874.3 683.123C2874.3 680.707 2874.99 680.552 2850.45 688.405C2789.82 707.82 2654.85 746.263 2578.69 765.825C2544.56 774.584 2402.31 808.985 2392.16 810.928C2386.47 812.013 2363.82 816.961 2341.82 821.925C2298.97 831.59 2246.04 842.951 2233.38 845.197C2229.12 845.956 2204.15 850.642 2177.87 855.606C2089.35 872.357 2039 881.023 1986.82 888.512C1974.05 890.339 1945.75 894.428 1923.94 897.588C1845.11 909.019 1747.82 920.542 1711.87 922.718C1701.22 923.361 1673.92 925.359 1651.2 927.164C1481.72 940.592 1309.32 940.848 1145.83 927.907C1128.44 926.529 1105.5 924.771 1094.85 924.004C1030.75 919.35 935.931 907.276 846.351 892.361C826.833 889.116 806.161 885.909 800.43 885.243C786.318 883.609 712.879 869.313 655.317 857C629.394 851.455 605.577 846.529 602.378 846.049C595.137 844.973 531.921 829.856 485.279 818.046C465.963 813.159 449.086 809.155 447.777 809.155C445.206 809.155 427.865 804.547 353.248 784.04C326.62 776.722 302.811 770.363 300.333 769.906C296.213 769.148 212.72 744.799 188.872 737.403C183.311 735.676 175.179 733.485 170.803 732.54C166.427 731.595 142.804 724.563 118.306 716.912C93.8162 709.26 67.6763 701.253 60.2177 699.107C52.7669 696.962 37.3695 692.308 26.0151 688.776C0.39414 680.8 -0.682434 680.552 0.192768 682.829Z" fill="#24AC0C"/>
</svg>
