<svg width="2875" height="1000" viewBox="0 0 2875 1000" fill="none" xmlns="http://www.w3.org/2000/svg">
<path d="M368.889 520.944C350.284 544.718 326.769 563.065 298.344 575.985C269.92 588.905 240.462 595.365 209.97 595.365C181.028 595.365 153.637 590.714 127.797 581.411C102.473 572.109 80.2504 558.93 61.1284 541.875C42.5232 524.304 27.7942 503.373 16.9411 479.083C6.08813 454.793 0.661621 427.66 0.661621 397.685C0.661621 367.71 6.08813 340.578 16.9411 316.288C27.7942 291.998 42.5232 271.325 61.1284 254.271C80.2504 236.699 102.473 223.262 127.797 213.959C153.637 204.657 181.028 200.005 209.97 200.005C236.844 200.005 261.134 204.657 282.84 213.959C305.063 223.262 323.668 236.699 338.655 254.271C354.16 271.325 366.046 291.998 374.315 316.288C382.584 340.578 386.719 367.71 386.719 397.685V434.12H116.944C121.595 456.343 131.673 474.173 147.177 487.61C162.682 500.53 181.804 506.991 204.543 506.991C223.665 506.991 239.686 502.856 252.607 494.587C266.044 485.801 277.672 474.69 287.491 461.253L368.889 520.944ZM270.437 355.048C270.953 335.41 264.493 318.613 251.056 304.66C237.619 290.706 220.306 283.729 199.117 283.729C186.196 283.729 174.827 285.796 165.007 289.93C155.188 294.065 146.66 299.491 139.425 306.21C132.707 312.412 127.28 319.905 123.146 328.691C119.528 336.96 117.461 345.746 116.944 355.048H270.437Z" fill="white"/>
<path d="M458.983 0H575.266V586.063H458.983V0Z" fill="white"/>
<path d="M1015.41 520.944C996.801 544.718 973.286 563.065 944.862 575.985C916.437 588.905 886.979 595.365 856.487 595.365C827.546 595.365 800.155 590.714 774.314 581.411C748.991 572.109 726.768 558.93 707.646 541.875C689.041 524.304 674.312 503.373 663.459 479.083C652.606 454.793 647.179 427.66 647.179 397.685C647.179 367.71 652.606 340.578 663.459 316.288C674.312 291.998 689.041 271.325 707.646 254.271C726.768 236.699 748.991 223.262 774.314 213.959C800.155 204.657 827.546 200.005 856.487 200.005C883.361 200.005 907.651 204.657 929.357 213.959C951.58 223.262 970.185 236.699 985.173 254.271C1000.68 271.325 1012.56 291.998 1020.83 316.288C1029.1 340.578 1033.24 367.71 1033.24 397.685V434.12H763.461C768.113 456.343 778.19 474.173 793.695 487.61C809.199 500.53 828.321 506.991 851.061 506.991C870.183 506.991 886.204 502.856 899.124 494.587C912.561 485.801 924.189 474.69 934.009 461.253L1015.41 520.944ZM916.954 355.048C917.471 335.41 911.011 318.613 897.574 304.66C884.137 290.706 866.823 283.729 845.634 283.729C832.714 283.729 821.344 285.796 811.525 289.93C801.705 294.065 793.178 299.491 785.943 306.21C779.224 312.412 773.797 319.905 769.663 328.691C766.045 336.96 763.978 345.746 763.461 355.048H916.954Z" fill="white"/>
<path d="M1064.41 209.308H1190L1285.35 465.129H1286.9L1375.28 209.308H1492.33L1343.49 586.063H1220.23L1064.41 209.308Z" fill="white"/>
<path d="M1771.15 538.774H1769.6C1756.68 558.93 1739.37 573.401 1717.66 582.186C1696.47 590.972 1673.99 595.365 1650.22 595.365C1632.65 595.365 1615.59 592.781 1599.05 587.613C1583.03 582.962 1568.82 575.726 1556.42 565.907C1544.01 556.088 1534.19 543.943 1526.96 529.472C1519.72 515.001 1516.1 498.205 1516.1 479.083C1516.1 457.377 1519.98 439.03 1527.73 424.043C1536 409.055 1546.85 396.652 1560.29 386.832C1574.25 377.013 1590.01 369.519 1607.58 364.351C1625.15 358.666 1643.24 354.532 1661.84 351.948C1680.97 349.364 1699.83 347.813 1718.44 347.296C1737.56 346.78 1755.13 346.521 1771.15 346.521C1771.15 325.849 1763.66 309.569 1748.67 297.683C1734.2 285.279 1716.89 279.077 1696.73 279.077C1677.61 279.077 1660.04 283.212 1644.02 291.481C1628.51 299.233 1614.56 310.086 1602.15 324.04L1540.14 260.472C1561.84 240.317 1587.17 225.329 1616.11 215.51C1645.05 205.174 1675.02 200.005 1706.03 200.005C1740.14 200.005 1768.05 204.398 1789.76 213.184C1811.98 221.453 1829.55 233.857 1842.47 250.394C1855.91 266.932 1865.21 287.346 1870.38 311.636C1875.55 335.41 1878.13 363.059 1878.13 394.584V586.063H1771.15V538.774ZM1742.47 420.942C1733.68 420.942 1722.57 421.459 1709.13 422.492C1696.21 423.009 1683.55 425.076 1671.15 428.694C1659.26 432.312 1648.92 437.738 1640.14 444.973C1631.87 452.209 1627.74 462.287 1627.74 475.207C1627.74 489.161 1633.68 499.497 1645.57 506.215C1657.45 512.934 1669.86 516.293 1682.78 516.293C1694.15 516.293 1705 514.743 1715.33 511.642C1726.19 508.541 1735.75 504.148 1744.02 498.463C1752.29 492.778 1758.75 485.543 1763.4 476.757C1768.57 467.971 1771.15 457.635 1771.15 445.749V420.942H1742.47Z" fill="white"/>
<path d="M1951.08 209.308H2067.37V269.775H2068.92C2081.32 246.518 2096.05 229.205 2113.1 217.835C2130.16 205.949 2151.61 200.005 2177.45 200.005C2184.17 200.005 2190.89 200.264 2197.6 200.781C2204.32 201.298 2210.52 202.331 2216.21 203.882V310.086C2207.94 307.502 2199.67 305.693 2191.4 304.66C2183.65 303.109 2175.38 302.334 2166.59 302.334C2144.37 302.334 2126.8 305.435 2113.88 311.636C2100.96 317.838 2090.88 326.624 2083.65 337.994C2076.93 348.847 2072.54 362.025 2070.47 377.53C2068.4 393.034 2067.37 410.089 2067.37 428.694V586.063H1951.08V209.308Z" fill="white"/>
<path d="M2280.4 209.308H2392.03V260.472H2393.58C2397.2 253.237 2402.37 246.002 2409.09 238.766C2415.8 231.531 2423.81 225.071 2433.12 219.386C2442.42 213.701 2453.01 209.05 2464.9 205.432C2476.79 201.814 2489.71 200.005 2503.66 200.005C2530.02 200.005 2553.28 205.432 2573.43 216.285C2594.1 227.138 2609.61 244.193 2619.94 267.449C2633.38 243.159 2649.66 225.846 2668.78 215.51C2687.9 205.174 2711.42 200.005 2739.33 200.005C2764.65 200.005 2785.84 204.398 2802.9 213.184C2820.47 221.453 2834.16 233.081 2843.98 248.069C2854.32 262.539 2861.55 279.853 2865.69 300.008C2870.34 319.647 2872.66 340.836 2872.66 363.576V586.063H2756.38V366.677C2756.38 349.105 2752.51 334.118 2744.75 321.714C2737.52 308.794 2724.34 302.334 2705.22 302.334C2691.78 302.334 2680.41 304.659 2671.11 309.311C2662.32 313.445 2655.09 319.389 2649.4 327.141C2644.23 334.893 2640.36 343.937 2637.77 354.273C2635.71 364.609 2634.67 375.462 2634.67 386.832V586.063H2518.39V386.832C2518.39 380.114 2518.13 371.845 2517.62 362.025C2517.1 352.206 2515.29 342.903 2512.19 334.118C2509.09 325.332 2503.92 317.838 2496.69 311.636C2489.97 305.435 2479.89 302.334 2466.45 302.334C2451.46 302.334 2439.32 305.176 2430.02 310.861C2420.71 316.029 2413.48 323.265 2408.31 332.567C2403.66 341.353 2400.56 351.431 2399.01 362.801C2397.46 374.17 2396.68 386.057 2396.68 398.461V586.063H2280.4V209.308Z" fill="white"/>
<path fill-rule="evenodd" clip-rule="evenodd" d="M0.787983 682.829C1.15975 683.805 5.96174 686.546 11.4531 688.916C16.9521 691.286 27.8341 696.149 35.6412 699.719C71.478 716.099 101.212 729.171 104.418 729.969C106.354 730.449 111.706 732.548 116.322 734.639C128.932 740.354 178.865 761.109 189.901 765.221C195.23 767.204 209.164 772.462 220.882 776.907C267.864 794.735 286.452 801.627 294.461 804.214C299.077 805.701 313.599 810.681 326.735 815.281C361.062 827.308 412.141 844.005 414.596 844.005C415.742 844.005 420.118 845.19 424.316 846.638C446.444 854.289 525.925 878.002 541.012 881.456C544.916 882.347 558.865 885.956 571.993 889.472C605.622 898.471 680.735 917.112 690.757 918.947C695.373 919.791 714.829 923.857 733.998 927.977C805.223 943.295 858.912 953.224 915.367 961.518C925.66 963.036 949.182 966.497 967.647 969.208C1060.74 982.915 1168.6 993.634 1240.01 996.282C1257.76 996.941 1290.29 998.156 1312.31 998.985C1337.72 999.938 1382.94 1000.24 1436.23 999.806C1596.2 998.497 1691.73 992.852 1824.13 976.883C1857.63 972.84 1863.97 971.98 1919.01 963.996C1938.18 961.208 1958.51 958.304 1964.18 957.529C1992.88 953.626 2068.64 939.144 2125.55 926.691C2141.16 923.276 2158.01 919.745 2162.98 918.846C2172.81 917.073 2242.08 899.935 2282.39 889.301C2296.23 885.654 2314.53 880.845 2323.05 878.622C2340.37 874.099 2388.46 859.788 2415.99 850.959C2425.93 847.768 2436.67 844.585 2439.87 843.888C2446.58 842.409 2471.46 834.363 2519.9 817.999C2538.71 811.641 2558.76 804.927 2564.43 803.076C2570.12 801.233 2590.45 793.914 2609.62 786.82C2628.79 779.726 2647.96 772.749 2652.22 771.316C2667.04 766.321 2684.71 759.684 2719.99 745.852C2739.51 738.193 2759.26 730.619 2763.87 729.032C2768.49 727.436 2786.21 720.366 2803.25 713.318C2840.42 697.938 2848.83 694.561 2863.59 689.071C2870.18 686.624 2874.89 684.145 2874.89 683.123C2874.89 680.707 2875.59 680.552 2851.04 688.405C2790.41 707.82 2655.45 746.263 2579.28 765.825C2545.16 774.584 2402.9 808.985 2392.75 810.928C2387.07 812.013 2364.42 816.961 2342.41 821.925C2299.57 831.59 2246.63 842.951 2233.98 845.197C2229.72 845.956 2204.74 850.642 2178.47 855.606C2089.94 872.357 2039.6 881.023 1987.42 888.512C1974.64 890.339 1946.35 894.428 1924.54 897.588C1845.71 909.019 1748.42 920.542 1712.47 922.718C1701.82 923.361 1674.52 925.359 1651.8 927.164C1482.32 940.592 1309.91 940.848 1146.43 927.907C1129.03 926.529 1106.09 924.771 1095.44 924.004C1031.34 919.35 936.526 907.276 846.946 892.361C827.428 889.116 806.756 885.909 801.025 885.243C786.913 883.609 713.474 869.313 655.912 857C629.989 851.455 606.172 846.529 602.974 846.049C595.732 844.973 532.516 829.856 485.875 818.046C466.558 813.159 449.682 809.155 448.373 809.155C445.801 809.155 428.46 804.547 353.843 784.04C327.215 776.722 303.407 770.363 300.928 769.906C296.808 769.148 213.315 744.799 189.468 737.403C183.907 735.676 175.774 733.485 171.398 732.54C167.022 731.595 143.4 724.563 118.902 716.912C94.4114 709.26 68.2715 701.253 60.8129 699.107C53.3621 696.962 37.9647 692.308 26.6103 688.776C0.989354 680.8 -0.0872192 680.552 0.787983 682.829Z" fill="white"/>
</svg>
