<svg width="2875" height="1000" viewBox="0 0 2875 1000" fill="none" xmlns="http://www.w3.org/2000/svg">
<path d="M368.592 520.944C349.986 544.718 326.471 563.065 298.047 575.985C269.622 588.905 240.164 595.365 209.672 595.365C180.731 595.365 153.34 590.714 127.5 581.411C102.176 572.109 79.9531 558.93 60.8311 541.875C42.2259 524.304 27.4968 503.373 16.6438 479.083C5.7908 454.793 0.364288 427.66 0.364288 397.685C0.364288 367.71 5.7908 340.578 16.6438 316.288C27.4968 291.998 42.2259 271.325 60.8311 254.271C79.9531 236.699 102.176 223.262 127.5 213.959C153.34 204.657 180.731 200.005 209.672 200.005C236.547 200.005 260.837 204.657 282.543 213.959C304.765 223.262 323.371 236.699 338.358 254.271C353.862 271.325 365.749 291.998 374.018 316.288C382.287 340.578 386.421 367.71 386.421 397.685V434.12H116.647C121.298 456.343 131.376 474.173 146.88 487.61C162.384 500.53 181.506 506.991 204.246 506.991C223.368 506.991 239.389 502.856 252.309 494.587C265.746 485.801 277.375 474.69 287.194 461.253L368.592 520.944ZM270.139 355.048C270.656 335.41 264.196 318.613 250.759 304.66C237.322 290.706 220.009 283.729 198.819 283.729C185.899 283.729 174.529 285.796 164.71 289.93C154.891 294.065 146.363 299.491 139.128 306.21C132.409 312.412 126.983 319.905 122.848 328.691C119.231 336.96 117.163 345.746 116.647 355.048H270.139Z" fill="white"/>
<path d="M458.686 0H574.968V586.063H458.686V0Z" fill="white"/>
<path d="M1015.11 520.944C996.504 544.718 972.989 563.065 944.564 575.985C916.14 588.905 886.682 595.365 856.19 595.365C827.248 595.365 799.858 590.714 774.017 581.411C748.693 572.109 726.47 558.93 707.348 541.875C688.743 524.304 674.014 503.373 663.161 479.083C652.308 454.793 646.882 427.66 646.882 397.685C646.882 367.71 652.308 340.578 663.161 316.288C674.014 291.998 688.743 271.325 707.348 254.271C726.47 236.699 748.693 223.262 774.017 213.959C799.858 204.657 827.248 200.005 856.19 200.005C883.064 200.005 907.354 204.657 929.06 213.959C951.283 223.262 969.888 236.699 984.876 254.271C1000.38 271.325 1012.27 291.998 1020.54 316.288C1028.8 340.578 1032.94 367.71 1032.94 397.685V434.12H763.164C767.815 456.343 777.893 474.173 793.397 487.61C808.902 500.53 828.024 506.991 850.763 506.991C869.885 506.991 885.906 502.856 898.827 494.587C912.264 485.801 923.892 474.69 933.711 461.253L1015.11 520.944ZM916.657 355.048C917.173 335.41 910.713 318.613 897.276 304.66C883.839 290.706 866.526 283.729 845.337 283.729C832.417 283.729 821.047 285.796 811.227 289.93C801.408 294.065 792.881 299.491 785.645 306.21C778.927 312.412 773.5 319.905 769.366 328.691C765.748 336.96 763.681 345.746 763.164 355.048H916.657Z" fill="white"/>
<path d="M1064.12 209.308H1189.7L1285.05 465.129H1286.6L1374.98 209.308H1492.04L1343.19 586.063H1219.94L1064.12 209.308Z" fill="white"/>
<path d="M1770.85 538.774H1769.3C1756.38 558.93 1739.07 573.401 1717.36 582.186C1696.17 590.972 1673.69 595.365 1649.92 595.365C1632.35 595.365 1615.29 592.781 1598.76 587.613C1582.73 582.962 1568.52 575.726 1556.12 565.907C1543.71 556.088 1533.9 543.943 1526.66 529.472C1519.42 515.001 1515.81 498.205 1515.81 479.083C1515.81 457.377 1519.68 439.03 1527.44 424.043C1535.7 409.055 1546.56 396.652 1559.99 386.832C1573.95 377.013 1589.71 369.519 1607.28 364.351C1624.85 358.666 1642.94 354.532 1661.55 351.948C1680.67 349.364 1699.53 347.813 1718.14 347.296C1737.26 346.78 1754.83 346.521 1770.85 346.521C1770.85 325.849 1763.36 309.569 1748.37 297.683C1733.9 285.279 1716.59 279.077 1696.43 279.077C1677.31 279.077 1659.74 283.212 1643.72 291.481C1628.21 299.233 1614.26 310.086 1601.86 324.04L1539.84 260.472C1561.54 240.317 1586.87 225.329 1615.81 215.51C1644.75 205.174 1674.73 200.005 1705.73 200.005C1739.84 200.005 1767.75 204.398 1789.46 213.184C1811.68 221.453 1829.25 233.857 1842.17 250.394C1855.61 266.932 1864.91 287.346 1870.08 311.636C1875.25 335.41 1877.83 363.059 1877.83 394.584V586.063H1770.85V538.774ZM1742.17 420.942C1733.38 420.942 1722.27 421.459 1708.84 422.492C1695.92 423.009 1683.25 425.076 1670.85 428.694C1658.96 432.312 1648.63 437.738 1639.84 444.973C1631.57 452.209 1627.44 462.287 1627.44 475.207C1627.44 489.161 1633.38 499.497 1645.27 506.215C1657.15 512.934 1669.56 516.293 1682.48 516.293C1693.85 516.293 1704.7 514.743 1715.04 511.642C1725.89 508.541 1735.45 504.148 1743.72 498.463C1751.99 492.778 1758.45 485.543 1763.1 476.757C1768.27 467.971 1770.85 457.635 1770.85 445.749V420.942H1742.17Z" fill="white"/>
<path d="M1950.79 209.308H2067.07V269.775H2068.62C2081.02 246.518 2095.75 229.205 2112.81 217.835C2129.86 205.949 2151.31 200.005 2177.15 200.005C2183.87 200.005 2190.59 200.264 2197.31 200.781C2204.02 201.298 2210.23 202.331 2215.91 203.882V310.086C2207.64 307.502 2199.37 305.693 2191.1 304.66C2183.35 303.109 2175.08 302.334 2166.3 302.334C2144.07 302.334 2126.5 305.435 2113.58 311.636C2100.66 317.838 2090.58 326.624 2083.35 337.994C2076.63 348.847 2072.24 362.025 2070.17 377.53C2068.1 393.034 2067.07 410.089 2067.07 428.694V586.063H1950.79V209.308Z" fill="white"/>
<path d="M2280.1 209.308H2391.73V260.472H2393.28C2396.9 253.237 2402.07 246.002 2408.79 238.766C2415.51 231.531 2423.52 225.071 2432.82 219.386C2442.12 213.701 2452.72 209.05 2464.6 205.432C2476.49 201.814 2489.41 200.005 2503.36 200.005C2529.72 200.005 2552.98 205.432 2573.13 216.285C2593.81 227.138 2609.31 244.193 2619.65 267.449C2633.08 243.159 2649.36 225.846 2668.49 215.51C2687.61 205.174 2711.12 200.005 2739.03 200.005C2764.35 200.005 2785.54 204.398 2802.6 213.184C2820.17 221.453 2833.86 233.081 2843.68 248.069C2854.02 262.539 2861.26 279.853 2865.39 300.008C2870.04 319.647 2872.37 340.836 2872.37 363.576V586.063H2756.08V366.677C2756.08 349.105 2752.21 334.118 2744.46 321.714C2737.22 308.794 2724.04 302.334 2704.92 302.334C2691.48 302.334 2680.11 304.659 2670.81 309.311C2662.03 313.445 2654.79 319.389 2649.11 327.141C2643.94 334.893 2640.06 343.937 2637.48 354.273C2635.41 364.609 2634.38 375.462 2634.38 386.832V586.063H2518.09V386.832C2518.09 380.114 2517.84 371.845 2517.32 362.025C2516.8 352.206 2514.99 342.903 2511.89 334.118C2508.79 325.332 2503.62 317.838 2496.39 311.636C2489.67 305.435 2479.59 302.334 2466.15 302.334C2451.17 302.334 2439.02 305.176 2429.72 310.861C2420.42 316.029 2413.18 323.265 2408.01 332.567C2403.36 341.353 2400.26 351.431 2398.71 362.801C2397.16 374.17 2396.39 386.057 2396.39 398.461V586.063H2280.1V209.308Z" fill="white"/>
<path fill-rule="evenodd" clip-rule="evenodd" d="M0.490376 682.829C0.862143 683.805 5.66414 686.546 11.1555 688.916C16.6545 691.286 27.5365 696.149 35.3436 699.719C71.1804 716.099 100.914 729.171 104.121 729.969C106.057 730.449 111.409 732.548 116.025 734.639C128.634 740.354 178.567 761.109 189.604 765.221C194.932 767.204 208.866 772.462 220.584 776.907C267.567 794.735 286.155 801.627 294.163 804.214C298.779 805.701 313.302 810.681 326.437 815.281C360.764 827.308 411.843 844.005 414.298 844.005C415.445 844.005 419.821 845.19 424.019 846.638C446.147 854.289 525.627 878.002 540.715 881.456C544.618 882.347 558.567 885.956 571.695 889.472C605.325 898.471 680.437 917.112 690.46 918.947C695.076 919.791 714.532 923.857 733.701 927.977C804.925 943.295 858.615 953.224 915.069 961.518C925.362 963.036 948.885 966.497 967.349 969.208C1060.44 982.915 1168.3 993.634 1239.71 996.282C1257.47 996.941 1290 998.156 1312.01 998.985C1337.42 999.938 1382.64 1000.24 1435.93 999.806C1595.91 998.497 1691.44 992.852 1823.83 976.883C1857.33 972.84 1863.67 971.98 1918.71 963.996C1937.88 961.208 1958.21 958.304 1963.89 957.529C1992.58 953.626 2068.35 939.144 2125.25 926.691C2140.86 923.276 2157.71 919.745 2162.68 918.846C2172.51 917.073 2241.78 899.935 2282.09 889.301C2295.93 885.654 2314.23 880.845 2322.75 878.622C2340.08 874.099 2388.16 859.788 2415.69 850.959C2425.63 847.768 2436.37 844.585 2439.57 843.888C2446.29 842.409 2471.16 834.363 2519.6 817.999C2538.41 811.641 2558.46 804.927 2564.14 803.076C2569.82 801.233 2590.15 793.914 2609.32 786.82C2628.49 779.726 2647.66 772.749 2651.92 771.316C2666.74 766.321 2684.41 759.684 2719.69 745.852C2739.22 738.193 2758.97 730.619 2763.57 729.032C2768.19 727.436 2785.91 720.366 2802.95 713.318C2840.13 697.938 2848.53 694.561 2863.29 689.071C2869.88 686.624 2874.59 684.145 2874.59 683.123C2874.59 680.707 2875.29 680.552 2850.75 688.405C2790.12 707.82 2655.15 746.263 2578.98 765.825C2544.86 774.584 2402.6 808.985 2392.46 810.928C2386.77 812.013 2364.12 816.961 2342.11 821.925C2299.27 831.59 2246.34 842.951 2233.68 845.197C2229.42 845.956 2204.44 850.642 2178.17 855.606C2089.65 872.357 2039.3 881.023 1987.12 888.512C1974.34 890.339 1946.05 894.428 1924.24 897.588C1845.41 909.019 1748.12 920.542 1712.17 922.718C1701.52 923.361 1674.22 925.359 1651.5 927.164C1482.02 940.592 1309.62 940.848 1146.13 927.907C1128.73 926.529 1105.79 924.771 1095.14 924.004C1031.05 919.35 936.229 907.276 846.648 892.361C827.131 889.116 806.459 885.909 800.727 885.243C786.616 883.609 713.176 869.313 655.614 857C629.691 851.455 605.875 846.529 602.676 846.049C595.434 844.973 532.218 829.856 485.577 818.046C466.261 813.159 449.384 809.155 448.075 809.155C445.504 809.155 428.162 804.547 353.545 784.04C326.918 776.722 303.109 770.363 300.631 769.906C296.51 769.148 213.017 744.799 189.17 737.403C183.609 735.676 175.477 733.485 171.101 732.54C166.725 731.595 143.102 724.563 118.604 716.912C94.1138 709.26 67.9739 701.253 60.5153 699.107C53.0645 696.962 37.6671 692.308 26.3127 688.776C0.691747 680.8 -0.384827 680.552 0.490376 682.829Z" fill="#24AC0C"/>
</svg>
