<svg width="10" height="10" viewBox="0 0 10 10" fill="none" xmlns="http://www.w3.org/2000/svg">
<g clip-path="url(#clip0_646_6830)">
<path d="M7.72237 1.77104C7.81734 2.00074 7.99965 2.18332 8.2292 2.27864L9.03413 2.61205C9.26384 2.7072 9.44635 2.88971 9.5415 3.11942C9.63665 3.34914 9.63665 3.60724 9.5415 3.83695L9.20833 4.64131C9.11313 4.87112 9.113 5.12949 9.20863 5.35919L9.54122 6.16331C9.58839 6.27708 9.61268 6.39903 9.6127 6.5222C9.61272 6.64536 9.58847 6.76733 9.54134 6.88112C9.4942 6.9949 9.42511 7.09829 9.33801 7.18537C9.2509 7.27245 9.14749 7.3415 9.03369 7.3886L8.22934 7.72178C7.99964 7.81675 7.81706 7.99905 7.72174 8.22861L7.38833 9.03354C7.29318 9.26325 7.11067 9.44576 6.88096 9.54091C6.65124 9.63606 6.39314 9.63606 6.16343 9.54091L5.35907 9.20774C5.12935 9.11282 4.87134 9.11301 4.64177 9.20827L3.83684 9.54121C3.60725 9.63614 3.34937 9.63606 3.11984 9.54099C2.89032 9.44591 2.70791 9.26362 2.6127 9.03415L2.27918 8.22898C2.18421 7.99929 2.0019 7.81671 1.77235 7.72139L0.967421 7.38798C0.737807 7.29287 0.555355 7.11048 0.460169 6.88089C0.364983 6.65131 0.364854 6.39333 0.45981 6.16365L0.792984 5.3593C0.8879 5.12958 0.887707 4.87157 0.792445 4.64199L0.459749 3.83648C0.41258 3.72271 0.388291 3.60075 0.388272 3.47759C0.388252 3.35442 0.412501 3.23246 0.459634 3.11867C0.506767 3.00488 0.57586 2.9015 0.662965 2.81442C0.75007 2.72734 0.853479 2.65828 0.967283 2.61119L1.77164 2.27801C2.00113 2.18312 2.1836 2.00105 2.27899 1.77176L2.6124 0.966829C2.70755 0.737115 2.89006 0.554608 3.11978 0.459458C3.34949 0.364307 3.60759 0.364307 3.83731 0.459458L4.64166 0.792632C4.87138 0.887548 5.12939 0.887354 5.35897 0.792092L6.16424 0.459975C6.39392 0.364877 6.65197 0.364897 6.88164 0.460029C7.11131 0.55516 7.29379 0.737615 7.38895 0.967269L7.72247 1.77244L7.72237 1.77104Z" fill="#0470E2"/>
<path fill-rule="evenodd" clip-rule="evenodd" d="M6.95829 3.68938C7.02509 3.58446 7.04747 3.45729 7.02051 3.33586C6.99356 3.21443 6.91946 3.10868 6.81454 3.04188C6.70961 2.97508 6.58245 2.9527 6.46102 2.97966C6.33959 3.00661 6.23384 3.08071 6.16704 3.18563L4.33141 6.07001L3.49141 5.02001C3.41375 4.92287 3.30069 4.86056 3.17709 4.84679C3.05349 4.83302 2.92949 4.86891 2.83235 4.94657C2.73522 5.02423 2.67291 5.13729 2.65914 5.26089C2.64536 5.38449 2.68125 5.5085 2.75891 5.60563L4.00891 7.16813C4.0555 7.22644 4.11533 7.27278 4.18344 7.30329C4.25154 7.33381 4.32595 7.34763 4.40047 7.3436C4.47499 7.33956 4.54747 7.31779 4.61188 7.2801C4.67629 7.2424 4.73077 7.18988 4.77079 7.12688L6.95829 3.68938Z" fill="white"/>
</g>
<defs>
<clipPath id="clip0_646_6830">
<rect width="10" height="10" fill="white"/>
</clipPath>
</defs>
</svg>
